# WaveFront *.obj file (generated by Autodesk ATF)

mtllib 610bef81-350a-40a5-b2c0-55d94a0c5d0f.mtl

g Body1

v 30.000000 -10.000000 60.000000
v 30.000000 -10.000000 70.000000
v 65.000000 -10.000000 70.000000
v 65.000000 -10.000000 60.000000
v 25.000000 -10.000000 90.000000
v 8.061480 -10.000000 90.000000
v 8.061480 -10.000000 76.399766
v 0.000000 -10.000000 76.399766
v 0.000000 -10.000000 0.000000
v 68.679317 -10.000000 0.000000
v 68.679317 -10.000000 76.399766
v 25.000000 -10.000000 76.399766
v 30.000000 10.000000 70.000000
v 65.000000 10.000000 70.000000
v 65.000000 10.000000 60.000000
v 30.000000 10.000000 60.000000
v 8.061480 10.000000 90.000000
v 8.061480 10.000000 76.399766
v 0.000000 10.000000 76.399766
v 0.000000 10.000000 0.000000
v 68.679317 10.000000 0.000000
v 68.679317 10.000000 76.399766
v 25.000000 10.000000 76.399766
v 25.000000 10.000000 90.000000
vt -2.500000 -0.433966 0.000000
vt -3.139977 -0.933966 0.000000
vt -1.500000 -0.433966 0.000000
vt -3.139977 -2.627818 0.000000
vt 4.500000 -3.433966 0.000000
vt -3.139977 -3.433966 0.000000
vt -3.139977 3.433966 0.000000
vt -2.500000 3.066034 0.000000
vt -1.500000 3.066034 0.000000
vt 4.500000 3.433966 0.000000
vt -4.500000 -2.627818 0.000000
vt -4.500000 -0.933966 0.000000
vt 3.500000 1.000000 0.000000
vt 0.000000 1.000000 0.000000
vt 3.500000 -1.000000 0.000000
vt 0.000000 -1.000000 0.000000
vt 1.000000 1.000000 0.000000
vt 0.000000 1.000000 0.000000
vt 1.000000 -1.000000 0.000000
vt 0.000000 -1.000000 0.000000
vt 3.500000 1.000000 0.000000
vt 0.000000 1.000000 0.000000
vt 3.500000 -1.000000 0.000000
vt 0.000000 -1.000000 0.000000
vt 1.000000 1.000000 0.000000
vt 0.000000 1.000000 0.000000
vt 1.000000 -1.000000 0.000000
vt 0.000000 -1.000000 0.000000
vt 1.360023 1.000000 0.000000
vt 0.000000 1.000000 0.000000
vt 1.360023 -1.000000 0.000000
vt 0.000000 -1.000000 0.000000
vt 0.806148 1.000000 0.000000
vt 0.000000 1.000000 0.000000
vt 0.806148 -1.000000 0.000000
vt 0.000000 -1.000000 0.000000
vt 7.639977 1.000000 0.000000
vt 0.000000 1.000000 0.000000
vt 7.639977 -1.000000 0.000000
vt 0.000000 -1.000000 0.000000
vt 6.867932 1.000000 0.000000
vt -0.000000 1.000000 0.000000
vt 6.867932 -1.000000 0.000000
vt 0.000000 -1.000000 0.000000
vt 7.639977 1.000000 0.000000
vt -0.000000 1.000000 0.000000
vt 7.639977 -1.000000 0.000000
vt 0.000000 -1.000000 0.000000
vt 4.367932 1.000000 0.000000
vt 0.000000 1.000000 0.000000
vt 4.367932 -1.000000 0.000000
vt 0.000000 -1.000000 0.000000
vt 1.360023 1.000000 0.000000
vt -0.000000 1.000000 0.000000
vt 1.360023 -1.000000 0.000000
vt 0.000000 -1.000000 0.000000
vt 1.693852 1.000000 0.000000
vt 0.000000 1.000000 0.000000
vt 1.693852 -1.000000 0.000000
vt 0.000000 -1.000000 0.000000
vt 1.500000 -0.433966 0.000000
vt 3.139977 -0.933966 0.000000
vt 2.500000 -0.433966 0.000000
vt 3.139977 3.433966 0.000000
vt 2.500000 3.066034 0.000000
vt 1.500000 3.066034 0.000000
vt -4.500000 3.433966 0.000000
vt -4.500000 -3.433966 0.000000
vt 3.139977 -2.627818 0.000000
vt 3.139977 -3.433966 0.000000
vt 4.500000 -0.933966 0.000000
vt 4.500000 -2.627818 0.000000
vn 0.000000 -0.100000 0.000000
vn 0.000000 -0.100000 0.000000
vn 0.000000 -0.100000 0.000000
vn 0.000000 -0.100000 0.000000
vn 0.000000 -0.100000 0.000000
vn 0.000000 -0.100000 0.000000
vn 0.000000 -0.100000 0.000000
vn 0.000000 -0.100000 0.000000
vn 0.000000 -0.100000 0.000000
vn 0.000000 -0.100000 0.000000
vn 0.000000 -0.100000 0.000000
vn 0.000000 -0.100000 0.000000
vn -0.000000 0.000000 -0.100000
vn -0.000000 0.000000 -0.100000
vn -0.000000 0.000000 -0.100000
vn -0.000000 0.000000 -0.100000
vn -0.100000 0.000000 0.000000
vn -0.100000 0.000000 0.000000
vn -0.100000 0.000000 0.000000
vn -0.100000 0.000000 0.000000
vn 0.000000 0.000000 0.100000
vn 0.000000 0.000000 0.100000
vn 0.000000 0.000000 0.100000
vn 0.000000 0.000000 0.100000
vn 0.100000 -0.000000 0.000000
vn 0.100000 -0.000000 0.000000
vn 0.100000 -0.000000 0.000000
vn 0.100000 -0.000000 0.000000
vn -0.100000 0.000000 0.000000
vn -0.100000 0.000000 0.000000
vn -0.100000 0.000000 0.000000
vn -0.100000 0.000000 0.000000
vn 0.000000 -0.000000 0.100000
vn 0.000000 -0.000000 0.100000
vn 0.000000 -0.000000 0.100000
vn 0.000000 -0.000000 0.100000
vn -0.100000 0.000000 0.000000
vn -0.100000 0.000000 0.000000
vn -0.100000 0.000000 0.000000
vn -0.100000 0.000000 0.000000
vn 0.000000 0.000000 -0.100000
vn 0.000000 0.000000 -0.100000
vn 0.000000 0.000000 -0.100000
vn 0.000000 0.000000 -0.100000
vn 0.100000 0.000000 0.000000
vn 0.100000 0.000000 0.000000
vn 0.100000 0.000000 0.000000
vn 0.100000 0.000000 0.000000
vn 0.000000 -0.000000 0.100000
vn 0.000000 -0.000000 0.100000
vn 0.000000 -0.000000 0.100000
vn 0.000000 -0.000000 0.100000
vn 0.100000 0.000000 0.000000
vn 0.100000 0.000000 0.000000
vn 0.100000 0.000000 0.000000
vn 0.100000 0.000000 0.000000
vn 0.000000 -0.000000 0.100000
vn 0.000000 -0.000000 0.100000
vn 0.000000 -0.000000 0.100000
vn 0.000000 -0.000000 0.100000
vn 0.000000 0.100000 0.000000
vn 0.000000 0.100000 0.000000
vn 0.000000 0.100000 0.000000
vn 0.000000 0.100000 0.000000
vn 0.000000 0.100000 0.000000
vn 0.000000 0.100000 0.000000
vn 0.000000 0.100000 0.000000
vn 0.000000 0.100000 0.000000
vn 0.000000 0.100000 0.000000
vn 0.000000 0.100000 0.000000
vn 0.000000 0.100000 0.000000
vn 0.000000 0.100000 0.000000
usemtl Steel_-_Satin
f 2/1/1 12/2/2 1/3/3
f 1/3/3 12/2/2 7/4/4
f 1/3/3 7/4/4 9/5/5
f 9/5/5 7/4/4 8/6/6
f 12/2/2 2/1/1 11/7/7
f 11/7/7 2/1/1 3/8/8
f 11/7/7 3/8/8 4/9/9
f 11/7/7 4/9/9 10/10/10
f 10/10/10 4/9/9 1/3/3
f 10/10/10 1/3/3 9/5/5
f 6/11/11 7/4/4 5/12/12
f 5/12/12 7/4/4 12/2/2
f 13/13/13 14/14/14 2/15/15
f 2/15/15 14/14/14 3/16/16
f 14/17/17 15/18/18 3/19/19
f 3/19/19 15/18/18 4/20/20
f 15/21/21 16/22/22 4/23/23
f 4/23/23 16/22/22 1/24/24
f 16/25/25 13/26/26 1/27/27
f 1/27/27 13/26/26 2/28/28
f 17/29/29 18/30/30 6/31/31
f 6/31/31 18/30/30 7/32/32
f 18/33/33 19/34/34 7/35/35
f 7/35/35 19/34/34 8/36/36
f 19/37/37 20/38/38 8/39/39
f 8/39/39 20/38/38 9/40/40
f 20/41/41 21/42/42 9/43/43
f 9/43/43 21/42/42 10/44/44
f 21/45/45 22/46/46 10/47/47
f 10/47/47 22/46/46 11/48/48
f 22/49/49 23/50/50 11/51/51
f 11/51/51 23/50/50 12/52/52
f 23/53/53 24/54/54 12/55/55
f 12/55/55 24/54/54 5/56/56
f 24/57/57 17/58/58 5/59/59
f 5/59/59 17/58/58 6/60/60
f 16/61/61 23/62/62 13/63/63
f 13/63/63 23/62/62 22/64/64
f 13/63/63 22/64/64 14/65/65
f 14/65/65 22/64/64 15/66/66
f 15/66/66 22/64/64 21/67/67
f 15/66/66 21/67/67 16/61/61
f 16/61/61 21/67/67 20/68/68
f 16/61/61 20/68/68 18/69/69
f 18/69/69 20/68/68 19/70/70
f 24/71/71 23/62/62 17/72/72
f 17/72/72 23/62/62 18/69/69
f 18/69/69 23/62/62 16/61/61

# 24 vertices
# 72 texture params
# 72 normals
# 48 facets

# 1 groups
